<?xml version="1.0" encoding="UTF-8"?>
<svg id="Camada_2" data-name="Camada 2" xmlns="http://www.w3.org/2000/svg" viewBox="0 0 1723.26 1723.26">
  <defs>
    <style>
      .cls-1 {
        fill: #7d11f0;
        stroke-width: 0px;
      }
    </style>
  </defs>
  <g id="Camada_1-2" data-name="Camada 1">
    <g>
      <g>
        <path class="cls-1" d="M832.73,617.57h-159.65v-147.68h-148.68v480.95c0,55.22,7.81,98.96,23.45,131.21,15.62,32.27,40.41,55.22,74.34,68.85,33.93,13.63,78.49,20.46,133.71,20.46h76.83v-134.71h-80.82c-25.29,0-44.75-6.81-58.37-20.45-13.64-13.63-20.45-33.43-20.45-59.37v-222.51l159.65-116.75Z"/>
        <path class="cls-1" d="M1188.76,919.82c-37.26-29.93-89.48-48.55-156.66-55.88l-42.91-3.99c-28.61-3.32-49.24-8.98-61.86-16.96-12.65-7.98-23.76-19.61-23.76-34.93s.85-39.2,26.75-60.89c13.29-11.13,34.25-13.97,58.87-13.97,31.26,0,43.32-1.15,70.85,18.46,26.93,19.18,25.27,50.41,27.94,68.38h141.69c-1.99-58.53-24.62-103.27-67.85-134.21-43.25-30.93-100.12-46.4-170.63-46.4-10.9,0-21.5.41-31.81,1.24l-192.35,143.18c-1.54,9.9-2.34,20.29-2.34,31.2,0,46.57,16.46,84.82,49.39,114.75,32.93,29.93,82.32,48.24,148.17,54.88l42.91,3.99c35.92,3.99,60.86,10.82,74.83,20.46,13.97,9.65,20.96,22.45,20.96,38.41,0,17.96-9.15,31.78-27.44,41.41-18.3,9.65-41.41,14.47-69.35,14.47-36.59,0-64.03-6.81-82.32-20.46-18.31-13.63-28.78-29.09-31.43-46.4h-141.69c2.65,57.87,25.94,102.78,69.85,134.7,43.9,31.93,104.77,47.9,182.6,47.9,49.22,0,92.13-7.16,128.72-21.45,36.58-14.3,64.86-34.92,84.82-61.86,19.96-26.94,29.93-58.7,29.93-95.29,0-50.55-18.63-90.8-55.88-120.74Z"/>
      </g>
      <path class="cls-1" d="M861.63,1723.26C386.53,1723.26,0,1336.73,0,861.63S386.53,0,861.63,0s861.63,386.53,861.63,861.63-386.52,861.63-861.63,861.63ZM861.63,74.93c-433.79,0-786.7,352.91-786.7,786.7s352.91,786.7,786.7,786.7,786.69-352.91,786.69-786.7S1295.42,74.93,861.63,74.93Z"/>
    </g>
  </g>
</svg>