<svg width="181" height="50" viewBox="0 0 181 50" fill="none" xmlns="http://www.w3.org/2000/svg">
<g clip-path="url(#clip0_34_90)">
<path d="M21.666 9.35612H10.4473V0.00616455H0V33.8023C0 37.6827 0.548887 40.756 1.64789 43.0225C2.74566 45.2903 4.48757 47.4206 6.87155 48.378C9.25553 49.3354 12.3867 49.8153 16.2671 49.8153H21.666V39.8319H15.9867C14.2099 39.8319 12.8424 39.3532 11.885 38.3946C10.9264 37.4368 10.4477 36.0455 10.4477 34.2223V18.5866L21.6664 9.3553L21.666 9.35612Z" fill="#7D11F0"/>
<path d="M50.397 9.19149H49.906C47.0072 9.19149 44.6002 9.8816 42.6838 11.2598C40.8988 12.5439 38.7094 15.5125 38.5468 22.1948V0H27.3281V48.807H38.5468V26.6504C38.5468 24.4064 39.1889 22.6078 40.4751 21.2514C41.7601 19.8962 43.4552 19.218 45.5584 19.218C47.6616 19.218 49.1925 19.8609 50.4314 21.1459C51.6696 22.4321 52.2895 24.126 52.2895 26.2296V48.807H63.5082V26.9307C63.5082 21.1352 62.3863 16.7285 60.1427 13.7135C57.8987 10.6986 54.6497 9.19108 50.3966 9.19108L50.397 9.19149Z" fill="#7D11F0"/>
<path d="M93.5771 11.4351C90.8885 10.3131 88.2053 9.21489 83.6557 9.29289C75.9528 9.5269 72.0946 10.2211 71.0346 10.3131V19.7788C72.483 19.6856 74.096 19.5928 75.8728 19.4984C77.6488 19.4052 79.3788 19.335 81.0615 19.2882C82.7443 19.2422 84.0995 19.2184 85.1283 19.2184C87.1847 19.2184 88.6803 19.709 89.6159 20.6906C90.5507 21.6722 91.0183 23.1448 91.0183 25.108V25.2484H84.0769C80.6641 25.2484 77.6492 25.6811 75.0316 26.5453C72.4132 27.4107 70.3798 28.7433 68.9314 30.5418C67.4818 32.342 66.7581 34.6439 66.7581 37.4483C66.7581 40.0195 67.3418 42.2281 68.511 44.0739C69.679 45.9209 71.3035 47.3344 73.3841 48.316C75.4635 49.2976 77.8824 49.7886 80.6412 49.7886C83.4 49.7886 85.5606 49.2976 87.4072 48.316C89.2534 47.3344 90.7026 45.932 91.7544 44.1088C92.2228 43.2968 92.6054 42.3965 92.9112 41.4177V48.8066H101.816V25.2476C101.816 21.6956 101.115 18.7857 99.7126 16.5179C98.3102 14.2513 96.2649 12.5562 93.5775 11.4347L93.5771 11.4351ZM91.0183 34.5737C90.9243 36.4909 90.5507 37.9865 89.8963 39.0613C89.2411 40.1373 88.4118 40.8964 87.4072 41.3402C86.4014 41.7852 85.2687 42.006 84.0067 42.006C82.0435 42.006 80.5361 41.5274 79.4843 40.5688C78.4325 39.6114 77.9066 38.3601 77.9066 36.8177C77.9066 35.1821 78.4325 33.8848 79.4843 32.9262C80.5361 31.9689 91.0183 26.3519 91.0183 26.3519V34.5741V34.5737Z" fill="#7D11F0"/>
<path d="M130.685 34.946C130.685 37.0964 130.054 38.8022 128.792 40.0646C127.53 41.3266 125.893 41.9576 123.884 41.9576C121.875 41.9576 120.354 41.3504 119.186 40.1348C118.017 38.9196 117.433 37.2841 117.433 35.2269V9.35611H106.214V32.6807C106.214 38.4775 107.406 42.8127 109.79 45.6873C112.174 48.5623 115.586 49.9996 120.027 49.9996H120.518C123.416 49.9996 125.847 49.3686 127.81 48.1066C132.316 44.8942 132.859 41.4826 132.999 37.0574V48.8078H141.904V9.35611H130.685V34.946H130.685Z" fill="#7D11F0"/>
<path d="M176.466 28.965C173.848 26.8614 170.179 25.5534 165.458 25.0386L162.443 24.7582C160.433 24.5246 158.983 24.1272 158.096 23.566C157.207 23.0048 156.427 22.1878 156.427 21.1118C156.427 20.0358 156.486 18.3571 158.307 16.8332C159.241 16.0511 160.714 15.8516 162.444 15.8516C164.641 15.8516 165.488 15.7711 167.422 17.1489C169.314 18.4967 169.198 20.6914 169.385 21.9538H179.341C179.201 17.8411 177.611 14.6968 174.573 12.523C171.535 10.3496 167.538 9.26251 162.584 9.26251C158.385 12.5369 150.484 18.6585 146.667 21.6028C146.667 24.8756 147.824 27.563 150.138 29.6661C152.452 31.7697 155.922 33.0559 160.55 33.5223L163.565 33.8027C166.089 34.0831 167.842 34.563 168.824 35.24C169.805 35.9182 170.296 36.8177 170.296 37.9393C170.296 39.2013 169.653 40.1722 168.368 40.8491C167.082 41.5274 165.458 41.866 163.495 41.866C160.924 41.866 158.996 41.3874 157.711 40.4288C156.424 39.4714 155.688 38.3843 155.502 37.1683H145.546C145.732 41.2351 147.368 44.3904 150.454 46.634C153.538 48.878 157.816 49.9996 163.285 49.9996C166.744 49.9996 169.759 49.4967 172.33 48.4921C174.9 47.4875 176.888 46.0383 178.29 44.1449C179.692 42.252 180.394 40.0203 180.394 37.4491C180.394 33.8971 179.084 31.0685 176.467 28.965H176.466Z" fill="#7D11F0"/>
</g>
<defs>
<clipPath id="clip0_34_90">
<rect width="180.393" height="50" fill="white"/>
</clipPath>
</defs>
</svg>
